<svg width="50" height="50" viewBox="0 0 50 50" fill="none" xmlns="http://www.w3.org/2000/svg">
<circle cx="25" cy="25" r="25" fill="#062A3A" fill-opacity="0.25"/>
<path d="M39.6833 21.7621L26.3929 17.0729C26.2148 17.01 26.0205 17.01 25.8425 17.0729L12.552 21.7621C12.2216 21.8787 12.0004 22.1908 12 22.5412C11.9996 22.8916 12.22 23.2043 12.5501 23.3216L25.8406 28.0465C25.9302 28.0783 26.024 28.0943 26.1176 28.0943C26.2114 28.0943 26.3051 28.0783 26.3947 28.0465L39.6851 23.3216C40.0153 23.2043 40.2357 22.8916 40.2353 22.5412C40.2349 22.1908 40.0137 21.8787 39.6833 21.7621Z" fill="white"/>
<path d="M38.2483 32.8037V25.5883L36.5939 26.1764V32.8037C36.0956 33.0905 35.7598 33.6279 35.7598 34.2442C35.7598 34.8604 36.0956 35.3979 36.5939 35.6847V39.7499C36.5939 40.2067 36.9642 40.5771 37.4211 40.5771C37.8779 40.5771 38.2483 40.2067 38.2483 39.7499V35.6847C38.7466 35.398 39.0824 34.8605 39.0824 34.2442C39.0824 33.628 38.7466 33.0905 38.2483 32.8037Z" fill="white"/>
<path d="M26.1177 29.7486C25.8337 29.7486 25.5541 29.7004 25.2864 29.6053L17.8149 26.9491V30.5892C17.8149 31.4798 18.744 32.233 20.5763 32.8277C22.1734 33.346 24.1414 33.6315 26.1177 33.6315C28.0939 33.6315 30.0618 33.346 31.659 32.8277C33.4913 32.233 34.4204 31.4798 34.4204 30.5892V26.9491L26.9489 29.6053C26.6813 29.7004 26.4016 29.7486 26.1177 29.7486Z" fill="white"/>
</svg>
