<svg width="34" height="36" viewBox="0 0 34 36" fill="none" xmlns="http://www.w3.org/2000/svg">
<path fill-rule="evenodd" clip-rule="evenodd" d="M0.929688 33.3825V2.77003V2.87187C0.929688 1.9382 1.20872 1.23399 1.67575 0.812256L18.9099 18.0756L1.67674 35.338L1.57334 35.2384C1.16914 34.8097 0.929688 34.1437 0.929688 33.2809V33.3825ZM0.929688 2.65877C0.929688 2.57601 0.932161 2.49424 0.936614 2.41495C0.932161 2.49424 0.929688 2.57601 0.929688 2.65877ZM0.937109 2.41296C0.937109 2.41098 0.937109 2.40949 0.937109 2.40751C0.937109 2.40949 0.937109 2.41148 0.937109 2.41296ZM0.937603 2.40305C0.937603 2.40157 0.937603 2.40057 0.937603 2.39958C0.937603 2.40057 0.937603 2.40157 0.937603 2.40305ZM0.938098 2.39215C0.938098 2.39165 0.938098 2.39165 0.938098 2.39116C0.938098 2.39165 0.938098 2.39165 0.938098 2.39215Z" fill="#02CBFA"/>
<path fill-rule="evenodd" clip-rule="evenodd" d="M1.67674 35.338L1.57334 35.2384C1.16914 34.8097 0.929688 34.1437 0.929688 33.2809V33.484V2.66769C0.929688 2.66521 0.929688 2.66273 0.929688 2.66026C0.929688 2.66273 0.929688 2.66571 0.929688 2.66819V2.87187C0.929688 1.9382 1.20872 1.23399 1.67575 0.812256L18.9099 18.0756L1.67674 35.338ZM0.929688 2.65877C0.929688 2.57601 0.932161 2.49424 0.936614 2.41495C0.932161 2.49424 0.929688 2.57601 0.929688 2.65877ZM0.937109 2.41296C0.937109 2.41098 0.937109 2.40949 0.937109 2.40751C0.937109 2.40949 0.937109 2.41148 0.937109 2.41296ZM0.937603 2.40305C0.937603 2.40157 0.937603 2.40057 0.937603 2.39958C0.937603 2.40057 0.937603 2.40157 0.937603 2.40305ZM0.938098 2.39215C0.938098 2.39165 0.938098 2.39165 0.938098 2.39116C0.938098 2.39165 0.938098 2.39165 0.938098 2.39215Z" fill="url(#paint0_linear)" fill-opacity="0.1"/>
<path fill-rule="evenodd" clip-rule="evenodd" d="M24.6536 24.036L24.7847 23.9611L31.5908 20.0877C32.2171 19.7309 32.6416 19.3017 32.8642 18.8463C32.6416 19.3017 32.2171 19.7314 31.5908 20.0882L24.7847 23.9621L24.6536 24.036ZM24.655 23.8318L18.9097 18.0757L24.655 12.3201L31.5908 16.2673C32.4719 16.7688 32.9661 17.4146 33.0488 18.0747C33.0488 18.0757 33.0488 18.0767 33.0488 18.0777C32.9661 18.7363 32.4719 19.3825 31.5908 19.884L24.655 23.8318Z" fill="#FFC644"/>
<path fill-rule="evenodd" clip-rule="evenodd" d="M2.90495 35.9952C2.42357 35.9952 2.00404 35.8381 1.67652 35.5422L1.67701 35.5417C2.00453 35.8381 2.42506 35.9952 2.90644 35.9952C2.97966 35.9952 3.05486 35.9917 3.13105 35.9843C3.05436 35.9917 2.97867 35.9952 2.90495 35.9952ZM2.90594 35.7915C2.42456 35.7915 2.00453 35.6344 1.67701 35.3386L1.67652 35.3381L18.9097 18.0757L24.6551 23.8318L4.46387 35.3237C3.9058 35.6413 3.37644 35.7915 2.90594 35.7915ZM1.67108 35.5373C1.6404 35.51 1.61121 35.4813 1.58252 35.451L1.67108 35.5373Z" fill="#FF3749"/>
<path fill-rule="evenodd" clip-rule="evenodd" d="M2.90495 35.9952C2.42357 35.9952 2.00404 35.8381 1.67652 35.5422L1.67701 35.5417C2.00453 35.8381 2.42506 35.9952 2.90644 35.9952C2.97966 35.9952 3.05486 35.9917 3.13105 35.9843C3.05436 35.9917 2.97867 35.9952 2.90495 35.9952ZM2.90594 35.7915C2.42456 35.7915 2.00453 35.6344 1.67701 35.3386L1.67652 35.3381L18.9097 18.0757L24.6551 23.8318L4.46387 35.3237C3.9058 35.6413 3.37644 35.7915 2.90594 35.7915ZM1.67108 35.5373C1.6404 35.51 1.61121 35.4813 1.58252 35.451L1.67108 35.5373Z" fill="url(#paint1_linear)" fill-opacity="0.1"/>
<path fill-rule="evenodd" clip-rule="evenodd" d="M18.9099 18.0758L1.67578 0.812392C2.0028 0.516533 2.42283 0.359931 2.90372 0.359931C3.37471 0.359931 3.90507 0.510586 4.46412 0.828746L24.6553 12.3201L18.9099 18.0758ZM24.7849 12.1903L4.46412 0.62556C3.90507 0.306905 3.37471 0.15625 2.90322 0.15625C2.89927 0.15625 2.8958 0.15625 2.89184 0.15625C2.8963 0.15625 2.90075 0.15625 2.9052 0.15625C3.3757 0.15625 3.90556 0.306905 4.46412 0.624569L24.7849 12.1903Z" fill="#00EF85"/>
<defs>
<linearGradient id="paint0_linear" x1="0.929688" y1="0.812256" x2="0.929688" y2="35.338" gradientUnits="userSpaceOnUse">
<stop stop-color="white"/>
<stop offset="1"/>
</linearGradient>
<linearGradient id="paint1_linear" x1="1.58252" y1="18.0757" x2="1.58252" y2="35.9952" gradientUnits="userSpaceOnUse">
<stop stop-color="white"/>
<stop offset="1"/>
</linearGradient>
</defs>
</svg>
