<svg width="50" height="50" viewBox="0 0 50 50" fill="none" xmlns="http://www.w3.org/2000/svg">
<circle cx="25" cy="25" r="25" fill="#062A3A" fill-opacity="0.25"/>
<path d="M25.5062 24.5165C25.5023 24.5124 25.5012 24.5069 25.4971 24.5029L21.4845 20.4902V17.9688C21.4845 17.782 21.4103 17.6035 21.2785 17.4716L17.0597 13.2061C16.8593 13.0056 16.5564 12.9445 16.2934 13.0537C16.0305 13.1621 15.8595 13.419 15.8595 13.7032V15.8126H13.7032C13.419 15.8126 13.1622 15.9835 13.0537 16.2465C12.9445 16.5095 13.005 16.8116 13.2061 17.0128L17.4718 21.2784C17.6036 21.4103 17.7821 21.4844 17.9689 21.4844H20.4902L24.5029 25.4971C24.507 25.5011 24.5124 25.5023 24.5166 25.5062C24.7903 25.7675 25.2061 25.771 25.4836 25.5062C25.7757 25.2274 25.7691 24.7919 25.5062 24.5165Z" fill="white"/>
<path d="M24.9999 13.0001C23.2008 13.0001 21.4998 13.4579 19.968 14.1728L22.1249 16.3297C23.0301 16.0287 23.995 15.8595 25 15.8595C30.0399 15.8595 34.1405 19.9601 34.1405 25C34.1405 30.04 30.0399 34.1406 24.9999 34.1406C19.9599 34.1406 15.8593 30.04 15.8593 25C15.8593 23.995 16.0286 23.0302 16.3296 22.125L14.1727 19.968C13.4578 21.4999 13 23.2009 13 25C13 31.5911 18.4089 37 24.9999 37C31.591 37 36.9999 31.5911 36.9999 25C36.9999 18.409 31.591 13.0001 24.9999 13.0001Z" fill="white"/>
<path d="M25 18.6719C24.2568 18.6719 23.5536 18.8242 22.8906 19.0606V19.9078L24.5161 21.5333C24.6757 21.511 24.8342 21.4844 25 21.4844C26.9384 21.4844 28.5156 23.0616 28.5156 25C28.5156 26.9384 26.9384 28.5156 25 28.5156C23.0615 28.5156 21.4843 26.9384 21.4843 25C21.4843 24.8342 21.511 24.6757 21.5333 24.5161L19.9078 22.8906H19.0606C18.8242 23.5536 18.6719 24.2568 18.6719 25C18.6719 28.4895 21.5105 31.328 25 31.328C28.4894 31.328 31.3281 28.4895 31.3281 25C31.3281 21.5104 28.4895 18.6719 25 18.6719Z" fill="white"/>
</svg>
