<svg width="50" height="50" viewBox="0 0 50 50" fill="none" xmlns="http://www.w3.org/2000/svg">
<circle cx="25" cy="25" r="25" fill="#062A3A" fill-opacity="0.25"/>
<path fill-rule="evenodd" clip-rule="evenodd" d="M29.4383 13H20.7234C19.2201 13 18 14.2201 18 15.7234V34.2426C18 35.7459 19.2201 36.9659 20.7234 36.9659H29.4383C30.9416 36.9659 32.1617 35.7459 32.1617 34.2426V15.7234C32.1617 14.2201 30.9416 13 29.4383 13ZM25.0809 35.8766C24.1767 35.8766 23.4468 35.1467 23.4468 34.2426C23.4468 33.3384 24.1767 32.6085 25.0809 32.6085C25.9851 32.6085 26.7149 33.3384 26.7149 34.2426C26.7149 35.1467 25.985 35.8766 25.0809 35.8766ZM20.1787 31.5192H29.983V16.2681H20.1787V31.5192Z" fill="white"/>
</svg>
